<svg xmlns="http://www.w3.org/2000/svg" viewBox="0 0 720 720" role="img" aria-labelledby="title desc">
  <title>CareerBridge Digital Gateway</title>
  <desc>Futuristic digital suspension bridge symbolising a gateway to success.</desc>
  <defs>
    <linearGradient id="bg" x1="0" x2="0" y1="0" y2="1">
      <stop offset="0%" stop-color="#3b82f6" />
      <stop offset="45%" stop-color="#4f46e5" />
      <stop offset="100%" stop-color="#8b5cf6" />
    </linearGradient>
    <radialGradient id="sun" cx="0.5" cy="0.28" r="0.5">
      <stop offset="0%" stop-color="#fde68a" />
      <stop offset="100%" stop-color="#fbbf24" stop-opacity="0" />
    </radialGradient>
    <linearGradient id="deck" x1="0" x2="1" y1="0" y2="0">
      <stop offset="0%" stop-color="#111827" />
      <stop offset="100%" stop-color="#1e293b" />
    </linearGradient>
    <linearGradient id="rail" x1="0" x2="0" y1="0" y2="1">
      <stop offset="0%" stop-color="#60a5fa" />
      <stop offset="100%" stop-color="#a855f7" />
    </linearGradient>
  </defs>
  <rect width="720" height="720" fill="url(#bg)" />
  <rect width="720" height="720" fill="url(#sun)" opacity="0.45" />
  <g opacity="0.35" stroke="#0ea5e9" stroke-width="1.4">
    <path d="M90 520 l90 -240 120 140 110 -220 120 280 120 -200" fill="none" />
    <path d="M120 580 h480" />
    <path d="M170 610 h380" />
    <path d="M210 640 h310" />
  </g>
  <g opacity="0.35" stroke="#c4b5fd" stroke-width="1">
    <path d="M120 520 l-36 -24" />
    <path d="M600 520 l36 -24" />
    <path d="M180 450 l-42 -32" />
    <path d="M540 450 l42 -32" />
  </g>
  <g opacity="0.4" stroke="#a5b4fc" stroke-width="2" stroke-dasharray="6 10">
    <path d="M100 470 C220 360 500 360 620 470" />
  </g>
  <g>
    <path d="M180 520 L360 310 L540 520" fill="none" stroke="#22d3ee" stroke-width="6" stroke-linecap="round" />
    <path d="M200 520 L360 340 L520 520" fill="none" stroke="#38bdf8" stroke-width="6" stroke-linecap="round" opacity="0.7" />
    <path d="M140 520 h440" stroke="url(#rail)" stroke-width="18" stroke-linecap="round" />
    <path d="M140 540 L360 360 L580 540" fill="none" stroke="#60a5fa" stroke-width="11" stroke-linecap="round" />
    <path d="M140 560 L360 390 L580 560" fill="none" stroke="#c084fc" stroke-width="6" stroke-linecap="round" opacity="0.8" />
    <path d="M140 520 L580 520" stroke="url(#deck)" stroke-width="90" stroke-linecap="round" />
    <path d="M360 360 l0 160" stroke="#1f2937" stroke-width="16" stroke-linecap="round" opacity="0.8" />
  </g>
  <g fill="#1f2937" opacity="0.72">
    <rect x="128" y="320" width="36" height="220" rx="10" />
    <rect x="556" y="320" width="36" height="220" rx="10" />
    <rect x="196" y="350" width="26" height="190" rx="9" />
    <rect x="498" y="350" width="26" height="190" rx="9" />
    <rect x="268" y="360" width="22" height="180" rx="8" />
    <rect x="430" y="360" width="22" height="180" rx="8" />
  </g>
  <g fill="#38bdf8" opacity="0.9">
    <circle cx="140" cy="520" r="6" />
    <circle cx="580" cy="520" r="6" />
    <circle cx="320" cy="460" r="6" />
    <circle cx="400" cy="430" r="6" />
    <circle cx="270" cy="430" r="6" />
    <circle cx="450" cy="470" r="6" />
  </g>
  <g stroke="#7dd3fc" stroke-width="3.5" stroke-linecap="round" opacity="0.8">
    <path d="M146 325 L146 520" />
    <path d="M574 325 L574 520" />
  </g>
  <g stroke="#7dd3fc" stroke-width="2" stroke-linecap="round" opacity="0.6">
    <path d="M210 352 L210 520" />
    <path d="M510 352 L510 520" />
    <path d="M280 362 L280 520" />
    <path d="M440 362 L440 520" />
  </g>
  <g fill="none" stroke="#fef3c7" stroke-width="2" stroke-dasharray="8 14" opacity="0.6">
    <path d="M140 510 L580 510" />
  </g>
  <g fill="#e0f2fe" opacity="0.9">
    <path d="M275 520 l15 -45 15 45 z" opacity="0.7" />
    <path d="M330 520 l15 -55 15 55 z" opacity="0.65" />
    <path d="M385 520 l15 -48 15 48 z" opacity="0.7" />
    <path d="M438 520 l14 -40 16 40 z" opacity="0.65" />
  </g>
  <g opacity="0.45" stroke="#bae6fd" stroke-width="1.5">
    <rect x="90" y="240" width="40" height="40" rx="6" />
    <rect x="600" y="250" width="46" height="46" rx="7" />
    <rect x="520" y="200" width="32" height="32" rx="5" />
    <rect x="260" y="210" width="28" height="28" rx="4" />
    <rect x="420" y="180" width="36" height="36" rx="6" />
    <rect x="320" y="160" width="26" height="26" rx="4" />
  </g>
  <g opacity="0.35" stroke="#c4b5fd" stroke-width="1.2" stroke-dasharray="12 10">
    <path d="M110 600 l-34 22" />
    <path d="M610 600 l34 22" />
  </g>
</svg>
